<?xml version="1.0" encoding="utf-8"?>
<!-- Generator: Adobe Illustrator 22.1.0, SVG Export Plug-In . SVG Version: 6.00 Build 0)  -->
<svg version="1.1" id="Layer_1" xmlns="http://www.w3.org/2000/svg" xmlns:xlink="http://www.w3.org/1999/xlink" x="0px" y="0px"
	 viewBox="0 0 1001 378" style="enable-background:new 0 0 1001 378;" xml:space="preserve">
<style type="text/css">
	.st0{fill:#A50E37;}
</style>
<g>
	<g>
		<path class="st0" d="M180.4,351.2c0,0-22.5,17.6-69.4,17.6c-56.3,0-105.1-36-105.1-99.8s48.8-99.8,105.1-99.8
			c43.2,0,67.6,15,67.6,15L165.4,248c-7.5-5.6-22.5-13.1-41.3-13.1c-18.8,0-34.9,11.3-34.9,33c0,21.4,14.3,32.7,36.8,32.7
			c22.5,0,39.4-13.1,39.4-13.1L180.4,351.2z"/>
		<path class="st0" d="M392.1,288.5H266.4c3,17.6,21.8,21.4,36.8,21.4s35.7-3.8,52.5-15l31.9,41.3c-9.4,7.5-35.7,32.7-96.8,32.7
			c-60.8,0-107.7-34.2-107.7-99.8s48.8-99.8,108.8-99.8s101.3,37.5,101.3,95.7C393.2,276.1,392.1,288.5,392.1,288.5z M315.2,244.2
			c-0.8-13.1-10.1-22.5-24.4-22.5c-13.9,0-23.3,9.4-24.4,22.5H315.2z"/>
		<path class="st0" d="M818.8,364.3h-79.9l-1.9-16.9c-9.4,9.4-24.4,21.4-48.8,21.4c-35.7,0-73.2-15.8-73.2-62.7s47.3-57.8,75.1-58.9
			l44.3-1.9v-1.9c0-10.5-8.6-18-31.2-18s-46.9,9.4-60.1,16.9l-20.6-53.3c18.8-8.6,52.5-19.9,92-19.9c39.4,0,61.9,7.5,78.8,22.5
			s25.5,35.7,25.5,67.6V364.3z M735.1,286.3l-16.9,1.1c-9,0.4-18.8,3.8-18.8,15s9.4,15,18.8,15s15-5.6,16.9-7.5V286.3z"/>
		<path class="st0" d="M986.6,249.9h-3.8c-3.8-1.9-13.1-5.6-24.4-5.6c-11.3,0-21,5.3-26.3,12.4c-5.3,6.8-7.5,17.6-7.5,32.7v75.1
			h-84.4V172.9h84.4l-1.1,24.4c12.4-20.6,27.4-28.1,48-28.1c13.1,0,18.8,3.8,18.8,3.8L986.6,249.9z"/>
	</g>
</g>
<path class="st0" d="M464.7,95.6c0-16.1,0-88.6,0-88.6h-11.9h-7.1h-11.9c0,0,0,72.5,0,88.6s-30.2,35.5-30.2,58.4
	c0,22.9,0,188.3,0,194.2c0,5.8,3.9,15.6,12.7,15.6c6,0,20.6,0,29.5,0c4.2,0,7.1,0,7.1,0c8.8,0,23.5,0,29.4,0
	c8.8,0,12.7-9.7,12.7-15.6c0-5.8,0-171.3,0-194.2C494.9,131.1,464.7,111.6,464.7,95.6z M440.5,121.6c-2,2.7-4.1,6-6.5,9.9
	c-2.4,3.9-4.7,8.4-7,13.3c-0.9,2.5-1.8,5.1-2.5,7.8c0,2.8-0.9,4.9-0.5,8.4c0.2,6.5,0.5,13.4,0.8,20.4c0.5,14.2,0.6,29.3,0.7,44.4
	c0,30.3-0.9,60.5-2.4,83.2c-0.6,11.3-1.6,20.8-2.1,27.4c-0.6,6.6-1.1,10.4-1.1,10.4s-0.5-3.8-1.1-10.4c-0.5-6.6-1.5-16.1-2.1-27.4
	c-1.4-22.7-2.3-53-2.4-83.2c0.1-15.1,0.2-30.3,0.7-44.4c0.3-7.1,0.5-13.9,0.8-20.4c-0.1-3,1-7.1,1.7-10.4c1.3-3.1,2.7-5.9,4-8.6
	c1.6-2.5,3.1-4.8,4.6-7.1c1.7-2.1,3.3-4,4.7-5.8c3.1-3.5,5.8-6.5,8.2-8.9c4.7-4.7,7.8-7,7.8-7S444.3,116.2,440.5,121.6z"/>
<g>
	<path class="st0" d="M575.1,95.6c0-16.1,0-88.6,0-88.6h-11.9h-7.1h-11.9c0,0,0,72.5,0,88.6S514,131.1,514,154
		c0,22.9,0,188.3,0,194.2c0,5.8,3.9,15.6,12.7,15.6c6,0,20.6,0,29.5,0c4.2,0,7.1,0,7.1,0c8.8,0,23.5,0,29.4,0
		c8.8,0,12.7-9.7,12.7-15.6c0-5.8,0-171.3,0-194.2C605.3,131.1,575.1,111.6,575.1,95.6z M550.8,121.6c-2,2.7-4.1,6-6.5,9.9
		c-2.4,3.9-4.7,8.4-7,13.3c-0.9,2.5-1.8,5.1-2.5,7.8c0,2.8-0.9,4.9-0.5,8.4c0.2,6.5,0.5,13.4,0.8,20.4c0.5,14.2,0.6,29.3,0.7,44.4
		c0,30.3-0.9,60.5-2.4,83.2c-0.6,11.3-1.6,20.8-2.1,27.4c-0.6,6.6-1.1,10.4-1.1,10.4s-0.5-3.8-1.1-10.4c-0.5-6.6-1.5-16.1-2.1-27.4
		c-1.4-22.7-2.3-53-2.4-83.2c0.1-15.1,0.2-30.3,0.7-44.4c0.3-7.1,0.5-13.9,0.8-20.4c-0.1-3,1-7.1,1.7-10.4c1.3-3.1,2.7-5.9,4-8.6
		c1.6-2.5,3.1-4.8,4.6-7.1c1.7-2.1,3.3-4,4.7-5.8c3.1-3.5,5.8-6.5,8.2-8.9c4.7-4.7,7.8-7,7.8-7S554.6,116.2,550.8,121.6z"/>
</g>
</svg>
