<?xml version="1.0" encoding="utf-8"?>
<!-- Generator: Adobe Illustrator 22.1.0, SVG Export Plug-In . SVG Version: 6.00 Build 0)  -->
<svg version="1.1" id="Layer_1" xmlns="http://www.w3.org/2000/svg" xmlns:xlink="http://www.w3.org/1999/xlink" x="0px" y="0px"
	 viewBox="0 0 600 250" style="enable-background:new 0 0 600 250;" xml:space="preserve">
<style type="text/css">
	.st0{fill:#FFFFFF;}
	.st1{font-family:'Gibson-SemiBold';}
	.st2{font-size:66.7341px;}
</style>
<g>
	<g>
		<circle class="st0" cx="85.6" cy="227.2" r="16.5"/>
		<circle class="st0" cx="58.4" cy="183.6" r="20.9"/>
		<circle class="st0" cx="112.9" cy="183.6" r="20.9"/>
		<circle class="st0" cx="29.2" cy="139.2" r="21.9"/>
		<circle class="st0" cx="85.6" cy="139.2" r="21.9"/>
		<circle class="st0" cx="142.1" cy="139.2" r="21.9"/>
		<circle class="st0" cx="54.7" cy="94.3" r="23.3"/>
		<circle class="st0" cx="115.9" cy="94.3" r="23.3"/>
		<path class="st0" d="M90.1,74.2c0,0,3.3-16.8,12.9-35.5c4.8-9.3,28.5-29.4,28.5-29.4c2.2-2.5,1.3-3.8-1.9-3l-16,4.2
			c-3.2,0.8-8.3,0.5-11.4-0.7L91.8,5.8c-3.1-1.2-5.6,0.5-5.6,3.8v63.1C86.2,76.1,87.9,76.7,90.1,74.2z"/>
		<path class="st0" d="M182.4,25.1c-6.5-6.9-15.3-10.8-24.7-11.1c-11.6-0.3-22.6,3.8-31,11.8c-8.4,7.9-13.3,18.7-13.6,30.3
			c-0.1,2,1.5,3.8,3.6,3.8c2.1,0.1,3.8-1.5,3.8-3.6c0.3-9.6,4.3-18.5,11.3-25.1c7-6.6,16.1-10.1,25.7-9.8c7.5,0.2,14.4,3.4,19.6,8.8
			c5.1,5.5,7.8,12.6,7.6,20.1c-0.4,12-10.4,21.4-22.3,21c-9.2-0.3-16.4-7.9-16.1-17.1c0.1-3.3,1.5-6.5,3.9-8.8
			c2.4-2.3,5.6-3.5,9-3.4c2.5,0.1,4.8,1.1,6.5,2.9c1.7,1.8,2.6,4.2,2.5,6.7c-0.1,2,1.5,3.8,3.6,3.8c2,0.1,3.8-1.5,3.8-3.6
			c0.1-4.5-1.5-8.7-4.5-12c-3.1-3.2-7.2-5.1-11.7-5.2c-5.3-0.2-10.4,1.8-14.3,5.4c-3.9,3.7-6.1,8.6-6.3,13.9
			c-0.4,13.2,10,24.3,23.3,24.7c0.3,0,0.6,0,0.9,0c7.4,0,14.5-2.8,19.9-7.9c5.7-5.3,8.9-12.5,9.1-20.3C192.3,41,188.9,32,182.4,25.1
			z"/>
	</g>
</g>
<text transform="matrix(1 0 0 1 205.2148 145.8978)" class="st0 st1 st2">EDIT WINE</text>
<rect x="209" y="152" class="st0" width="318" height="14"/>
</svg>
