<?xml version="1.0" encoding="utf-8"?>
<!-- Generator: Adobe Illustrator 22.1.0, SVG Export Plug-In . SVG Version: 6.00 Build 0)  -->
<svg version="1.1" id="Layer_1" xmlns="http://www.w3.org/2000/svg" xmlns:xlink="http://www.w3.org/1999/xlink" x="0px" y="0px"
	 viewBox="0 0 300 500" style="enable-background:new 0 0 300 500;" xml:space="preserve">
<style type="text/css">
	.st0{fill:#FFFFFF;}
</style>
<g>
	<g>
		<circle class="st0" cx="129.2" cy="402.5" r="24.5"/>
		<circle class="st0" cx="88.8" cy="337.6" r="31.1"/>
		<circle class="st0" cx="169.6" cy="337.6" r="31.1"/>
		<circle class="st0" cx="45.4" cy="271.7" r="32.5"/>
		<circle class="st0" cx="129.2" cy="271.7" r="32.5"/>
		<circle class="st0" cx="213" cy="271.7" r="32.5"/>
		<circle class="st0" cx="83.2" cy="205" r="34.5"/>
		<circle class="st0" cx="174.2" cy="205" r="34.5"/>
		<path class="st0" d="M135.9,175.2c0,0,4.8-25,19.1-52.7c7.1-13.8,42.3-43.6,42.3-43.6c3.2-3.7,2-5.7-2.8-4.5l-23.8,6.2
			c-4.7,1.2-12.4,0.8-17-1l-15.5-6c-4.6-1.8-8.3,0.8-8.3,5.7V173C130,177.9,132.6,178.9,135.9,175.2z"/>
		<path class="st0" d="M272.9,102.2c-9.6-10.2-22.7-16.1-36.7-16.5c-17.2-0.5-33.6,5.7-46.1,17.5c-12.5,11.8-19.7,27.8-20.2,45
			c-0.1,3,2.3,5.6,5.3,5.7c3,0.1,5.6-2.3,5.7-5.3c0.4-14.3,6.4-27.5,16.8-37.3c10.4-9.8,24-14.9,38.2-14.5
			c11.1,0.3,21.4,5,29.1,13.1c7.6,8.1,11.6,18.7,11.3,29.8c-0.5,17.8-15.4,31.8-33.2,31.2c-13.6-0.4-24.3-11.8-23.9-25.4
			c0.1-5,2.2-9.6,5.9-13s8.4-5.2,13.3-5.1c3.7,0.1,7.1,1.7,9.6,4.3c2.5,2.7,3.9,6.2,3.7,9.9c-0.1,3,2.3,5.6,5.3,5.7
			c3,0.1,5.6-2.3,5.7-5.3c0.2-6.6-2.2-12.9-6.7-17.8c-4.5-4.8-10.7-7.6-17.3-7.8c-7.9-0.2-15.4,2.6-21.2,8
			c-5.8,5.4-9.1,12.8-9.3,20.7c-0.6,19.7,14.9,36.1,34.6,36.7c0.4,0,0.9,0,1.3,0c11,0,21.5-4.1,29.6-11.7
			c8.4-7.9,13.2-18.6,13.6-30.2C287.6,125.8,282.5,112.4,272.9,102.2z"/>
	</g>
</g>
</svg>
