<?xml version="1.0" encoding="utf-8"?>
<!-- Generator: Adobe Illustrator 22.1.0, SVG Export Plug-In . SVG Version: 6.00 Build 0)  -->
<svg version="1.1" id="Layer_1" xmlns="http://www.w3.org/2000/svg" xmlns:xlink="http://www.w3.org/1999/xlink" x="0px" y="0px"
	 viewBox="0 0 500 300" style="enable-background:new 0 0 500 300;" xml:space="preserve">
<style type="text/css">
	.st0{fill:#F8ABA5;}
	.st1{font-family:'Gibson-SemiBold';}
	.st2{font-size:72px;}
</style>
<g>
	<g>
		<circle class="st0" cx="99.2" cy="274.1" r="19.7"/>
		<circle class="st0" cx="66.8" cy="222.1" r="24.9"/>
		<circle class="st0" cx="131.6" cy="222.1" r="24.9"/>
		<circle class="st0" cx="32" cy="169.2" r="26.1"/>
		<circle class="st0" cx="99.2" cy="169.2" r="26.1"/>
		<circle class="st0" cx="166.4" cy="169.2" r="26.1"/>
		<circle class="st0" cx="62.3" cy="115.7" r="27.7"/>
		<circle class="st0" cx="135.3" cy="115.7" r="27.7"/>
		<path d="M104.6,91.8c0,0,3.8-20.1,15.3-42.3c5.7-11.1,33.9-35,33.9-35c2.6-3,1.6-4.6-2.2-3.6l-19.1,5c-3.8,1-9.9,0.6-13.6-0.8
			l-12.4-4.8c-3.7-1.4-6.7,0.6-6.7,4.6V90C99.8,94,101.9,94.8,104.6,91.8z"/>
		<path d="M214.4,33.2c-7.7-8.2-18.2-12.9-29.4-13.2c-13.8-0.4-26.9,4.6-37,14c-10,9.5-15.8,22.3-16.2,36.1
			c-0.1,2.4,1.8,4.5,4.3,4.6c2.4,0.1,4.5-1.8,4.6-4.3c0.3-11.5,5.1-22.1,13.5-29.9c8.3-7.9,19.2-12,30.6-11.6
			c8.9,0.2,17.2,4,23.3,10.5c6.1,6.5,9.3,15,9.1,23.9c-0.4,14.3-12.4,25.5-26.6,25C179.6,88,171,78.9,171.4,68
			c0.1-4,1.8-7.7,4.7-10.4c3-2.7,6.7-4.2,10.7-4.1c3,0.1,5.7,1.4,7.7,3.4c2,2.2,3.1,5,3,7.9c-0.1,2.4,1.8,4.5,4.3,4.6
			c2.4,0.1,4.5-1.8,4.6-4.3c0.2-5.3-1.8-10.3-5.4-14.3c-3.6-3.8-8.6-6.1-13.9-6.3c-6.3-0.2-12.4,2.1-17,6.4
			c-4.7,4.3-7.3,10.3-7.5,16.6c-0.5,15.8,12,29,27.8,29.4c0.3,0,0.7,0,1,0c8.8,0,17.2-3.3,23.7-9.4c6.7-6.3,10.6-14.9,10.9-24.2
			C226.2,52.2,222.1,41.4,214.4,33.2z"/>
	</g>
</g>
<text transform="matrix(1 0 0 1 226 190.667)" class="st1 st2">OTHERS</text>
<rect x="230" y="197" class="st0" width="261" height="14"/>
</svg>
