<?xml version="1.0" encoding="utf-8"?>
<!-- Generator: Adobe Illustrator 22.1.0, SVG Export Plug-In . SVG Version: 6.00 Build 0)  -->
<svg version="1.1" id="Layer_1" xmlns="http://www.w3.org/2000/svg" xmlns:xlink="http://www.w3.org/1999/xlink" x="0px" y="0px"
	 viewBox="0 0 102.3 366.7" style="enable-background:new 0 0 102.3 366.7;" xml:space="preserve">
<style type="text/css">
	.st0{fill:#F8ABA5;}
</style>
<g>
	<path class="st0" d="M67.1,92.6c0-16.1,0-88.6,0-88.6H55.2h-7.1H36.2c0,0,0,72.5,0,88.6S6,128.1,6,151s0,188.3,0,194.2
		c0,5.8,3.9,15.6,12.7,15.6c6,0,20.6,0,29.5,0c4.2,0,7.1,0,7.1,0c8.8,0,23.5,0,29.4,0c8.8,0,12.7-9.7,12.7-15.6
		c0-5.8,0-171.3,0-194.2C97.3,128.1,67.1,108.6,67.1,92.6z M42.8,118.6c-2,2.7-4.1,6-6.5,9.9s-4.7,8.4-7,13.3
		c-0.9,2.5-1.8,5.1-2.5,7.8c0,2.8-0.9,4.9-0.5,8.4c0.2,6.5,0.5,13.4,0.8,20.4c0.5,14.2,0.6,29.3,0.7,44.4c0,30.3-0.9,60.5-2.4,83.2
		c-0.6,11.3-1.6,20.8-2.1,27.4c-0.6,6.6-1.1,10.4-1.1,10.4s-0.5-3.8-1.1-10.4c-0.5-6.6-1.5-16.1-2.1-27.4c-1.4-22.7-2.3-53-2.4-83.2
		c0.1-15.1,0.2-30.3,0.7-44.4c0.3-7.1,0.5-13.9,0.8-20.4c-0.1-3,1-7.1,1.7-10.4c1.3-3.1,2.7-5.9,4-8.6c1.6-2.5,3.1-4.8,4.6-7.1
		c1.7-2.1,3.3-4,4.7-5.8c3.1-3.5,5.8-6.5,8.2-8.9c4.7-4.7,7.8-7,7.8-7S46.6,113.2,42.8,118.6z"/>
</g>
</svg>
