<?xml version="1.0" encoding="utf-8"?>
<!-- Generator: Adobe Illustrator 22.1.0, SVG Export Plug-In . SVG Version: 6.00 Build 0)  -->
<svg version="1.1" id="Layer_1" xmlns="http://www.w3.org/2000/svg" xmlns:xlink="http://www.w3.org/1999/xlink" x="0px" y="0px"
	 viewBox="0 0 979 276" style="enable-background:new 0 0 979 276;" xml:space="preserve">
<style type="text/css">
	.st0{display:none;}
	.st1{display:inline;fill:#A50E37;}
	.st2{font-family:'Gibson-Bold';}
	.st3{font-size:375.3273px;}
	.st4{letter-spacing:-5;}
	.st5{display:inline;fill:#FFFFFF;}
	.st6{display:none;fill:#A50E37;}
	.st7{display:none;fill:none;stroke:#4C0118;stroke-width:22;stroke-miterlimit:10;}
	.st8{enable-background:new    ;}
	.st9{fill:#4C0118;}
	.st10{fill:#A50E37;}
	.st11{fill:#EDC98E;}
	.st12{fill:#FFFFFF;}
</style>
<g class="st0">
	<text transform="matrix(1 0 0 1 170.2773 443.335)" class="st1 st2 st3 st4">ce</text>
	<text transform="matrix(1 0 0 1 560.9773 443.335)" class="st5 st2 st3">   </text>
	<text transform="matrix(1 0 0 1 780.5773 443.335)" class="st1 st2 st3 st4">ar</text>
</g>
<path class="st6" d="M634.7,174.6c0-16.1,0-88.6,0-88.6h-11.9h-7.1h-11.9c0,0,0,72.5,0,88.6s-30.2,35.5-30.2,58.4s0,188.3,0,194.2
	c0,5.8,3.9,15.6,12.7,15.6c6,0,20.6,0,29.5,0c4.2,0,7.1,0,7.1,0c8.8,0,23.5,0,29.4,0c8.8,0,12.7-9.7,12.7-15.6
	c0-5.8,0-171.3,0-194.2C664.9,210.1,634.7,190.6,634.7,174.6z M610.5,200.6c-2,2.7-4.1,6-6.5,9.9s-4.7,8.4-7,13.3
	c-0.9,2.5-1.8,5.1-2.5,7.8c0,2.8-0.9,4.9-0.5,8.4c0.2,6.5,0.5,13.4,0.8,20.4c0.5,14.2,0.6,29.3,0.7,44.4c0,30.3-0.9,60.5-2.4,83.2
	c-0.6,11.3-1.6,20.8-2.1,27.4c-0.6,6.6-1.1,10.4-1.1,10.4s-0.5-3.8-1.1-10.4c-0.5-6.6-1.5-16.1-2.1-27.4c-1.4-22.7-2.3-53-2.4-83.2
	c0.1-15.1,0.2-30.3,0.7-44.4c0.3-7.1,0.5-13.9,0.8-20.4c-0.1-3,1-7.1,1.7-10.4c1.3-3.1,2.7-5.9,4-8.6c1.6-2.5,3.1-4.8,4.6-7.1
	c1.7-2.1,3.3-4,4.7-5.8c3.1-3.5,5.8-6.5,8.2-8.9c4.7-4.7,7.8-7,7.8-7S614.3,195.2,610.5,200.6z"/>
<g class="st0">
	<path class="st1" d="M745.1,174.6c0-16.1,0-88.6,0-88.6h-11.9h-7.1h-11.9c0,0,0,72.5,0,88.6S684,210.1,684,233s0,188.3,0,194.2
		c0,5.8,3.9,15.6,12.7,15.6c6,0,20.6,0,29.5,0c4.2,0,7.1,0,7.1,0c8.8,0,23.5,0,29.4,0c8.8,0,12.7-9.7,12.7-15.6
		c0-5.8,0-171.3,0-194.2C775.3,210.1,745.1,190.6,745.1,174.6z M720.8,200.6c-2,2.7-4.1,6-6.5,9.9s-4.7,8.4-7,13.3
		c-0.9,2.5-1.8,5.1-2.5,7.8c0,2.8-0.9,4.9-0.5,8.4c0.2,6.5,0.5,13.4,0.8,20.4c0.5,14.2,0.6,29.3,0.7,44.4c0,30.3-0.9,60.5-2.4,83.2
		c-0.6,11.3-1.6,20.8-2.1,27.4c-0.6,6.6-1.1,10.4-1.1,10.4s-0.5-3.8-1.1-10.4c-0.5-6.6-1.5-16.1-2.1-27.4c-1.4-22.7-2.3-53-2.4-83.2
		c0.1-15.1,0.2-30.3,0.7-44.4c0.3-7.1,0.5-13.9,0.8-20.4c-0.1-3,1-7.1,1.7-10.4c1.3-3.1,2.7-5.9,4-8.6c1.6-2.5,3.1-4.8,4.6-7.1
		c1.7-2.1,3.3-4,4.7-5.8c3.1-3.5,5.8-6.5,8.2-8.9c4.7-4.7,7.8-7,7.8-7S724.6,195.2,720.8,200.6z"/>
</g>
<path class="st7" d="M335.5,557c0,61.9,50.3,112.1,112.3,112.1S560.2,618.9,560.2,557c0-0.3,0-0.6,0-0.9"/>
<path class="st7" d="M560.9,557c0,61.9,50.3,112.1,112.3,112.1S785.6,618.9,785.6,557c0-0.3,0-0.6,0-0.9"/>
<path class="st7" d="M785.3,557c0,61.9,50.3,112.1,112.3,112.1S1010,618.9,1010,557c0-0.3,0-0.6,0-0.9"/>
<g class="st8">
	<path class="st9" d="M153.6,178.5l-95.8,86.3H22.5l113.7-100.4L27.1,69.4h36.2l90.3,82.2l90.8-82.2h36.2l-108.2,94.9l113.2,100.4
		h-35.8L153.6,178.5z"/>
	<path class="st9" d="M382.9,178.5L287,264.8h-35.3l113.7-100.4L256.3,69.4h36.2l90.3,82.2l90.8-82.2h36.2l-108.2,94.9l113.2,100.4
		h-35.8L382.9,178.5z"/>
	<path class="st9" d="M612.1,178.5l-95.8,86.3H481l113.7-100.4L485.5,69.4h36.2l90.3,82.2l90.8-82.2h36.2l-108.2,94.9l113.2,100.4
		h-35.8L612.1,178.5z"/>
	<path class="st9" d="M841.3,178.5l-95.8,86.3h-35.3l113.7-100.4L714.8,69.4H751l90.3,82.2l90.8-82.2h36.2l-108.2,94.9l113.2,100.4
		h-35.8L841.3,178.5z"/>
</g>
<g>
	<circle class="st10" cx="726.1" cy="165.3" r="56.1"/>
	<circle class="st11" cx="726.1" cy="165.3" r="17.1"/>
	<path class="st12" d="M697.7,165.1c1.2-14.6,13-26,26.8-26.5c12.4-0.4,24.1,8.2,27.8,20.8c-1.5-15.5-15.5-26.9-30.5-25.2
		C707,136.1,696.1,149.9,697.7,165.1z"/>
</g>
<g>
	<circle class="st10" cx="496.1" cy="166" r="56.1"/>
	<circle class="st11" cx="496.1" cy="166" r="17.1"/>
	<path class="st12" d="M467.7,165.7c1.2-14.6,13-26,26.8-26.5c12.4-0.4,24.1,8.2,27.8,20.8c-1.5-15.5-15.5-26.9-30.5-25.2
		C476.9,136.6,466.1,150.5,467.7,165.7z"/>
</g>
<g>
	<circle class="st10" cx="266.6" cy="165.3" r="56.1"/>
	<circle class="st11" cx="266.6" cy="165.3" r="17.1"/>
	<path class="st12" d="M238.2,165.1c1.2-14.6,13-26,26.8-26.5c12.4-0.4,24.1,8.2,27.8,20.8c-1.5-15.5-15.5-26.9-30.5-25.2
		C247.4,136.1,236.6,149.9,238.2,165.1z"/>
</g>
<g>
	<circle class="st10" cx="382.4" cy="66.6" r="56.1"/>
	<circle class="st11" cx="382.4" cy="66.6" r="17.1"/>
	<path class="st12" d="M354,66.4c1.2-14.6,13-26,26.8-26.5c12.4-0.4,24.1,8.2,27.8,20.8c-1.5-15.5-15.5-26.9-30.5-25.2
		C363.2,37.4,352.4,51.1,354,66.4z"/>
</g>
<g>
	<circle class="st10" cx="609.1" cy="66.6" r="56.1"/>
	<circle class="st11" cx="609.1" cy="66.6" r="17.1"/>
	<path class="st12" d="M580.7,66.4c1.2-14.6,13-26,26.8-26.5c12.4-0.4,24.1,8.2,27.8,20.8c-1.5-15.5-15.5-26.9-30.5-25.2
		C589.9,37.4,579.1,51.1,580.7,66.4z"/>
</g>
<g>
	<circle class="st10" cx="838.2" cy="66.6" r="56.1"/>
	<circle class="st11" cx="838.2" cy="66.6" r="17.1"/>
	<path class="st12" d="M809.8,66.4c1.2-14.6,13-26,26.8-26.5c12.4-0.4,24.1,8.2,27.8,20.8C863,45.3,849,33.8,834,35.5
		C819.1,37.4,808.2,51.1,809.8,66.4z"/>
</g>
<g>
	<circle class="st10" cx="154.4" cy="66.6" r="56.1"/>
	<circle class="st11" cx="154.4" cy="66.6" r="17.1"/>
	<path class="st12" d="M126,66.4c1.2-14.6,13-26,26.8-26.5c12.4-0.4,24.1,8.2,27.8,20.8c-1.5-15.5-15.5-26.9-30.5-25.2
		C135.3,37.4,124.4,51.1,126,66.4z"/>
</g>
</svg>
