<?xml version="1.0" encoding="utf-8"?>
<!-- Generator: Adobe Illustrator 22.1.0, SVG Export Plug-In . SVG Version: 6.00 Build 0)  -->
<svg version="1.1" id="Layer_1" xmlns="http://www.w3.org/2000/svg" xmlns:xlink="http://www.w3.org/1999/xlink" x="0px" y="0px"
	 viewBox="0 0 119 119" style="enable-background:new 0 0 119 119;" xml:space="preserve">
<style type="text/css">
	.st0{display:none;fill:#A50E37;}
	.st1{display:none;fill:#EDC98E;}
	.st2{display:none;fill:#FFFFFF;}
	.st3{fill:#4C0118;}
	.st4{fill:#EDC98E;}
</style>
<g>
	<circle class="st0" cx="59.6" cy="58.3" r="56.1"/>
	<circle class="st1" cx="59.6" cy="58.3" r="17.1"/>
	<path class="st2" d="M31.2,58.1c1.2-14.6,13-26,26.8-26.5c12.4-0.4,24.1,8.2,27.8,20.8C84.3,37,70.3,25.6,55.3,27.3
		C40.4,29.1,29.6,42.9,31.2,58.1z"/>
	<circle class="st3" cx="59.6" cy="58.3" r="56.1"/>
	<g>
		<path class="st4" d="M32.7,50.4c1.2-0.2,2.9-0.4,4.5-0.4c2.5,0,4.1,0.5,5.3,1.5c0.9,0.8,1.4,2.1,1.4,3.5c0,2.4-1.5,4-3.4,4.6v0.1
			c1.4,0.5,2.2,1.8,2.7,3.7c0.6,2.5,1,4.3,1.4,5h-2.4c-0.3-0.5-0.7-2.1-1.2-4.3c-0.5-2.5-1.5-3.5-3.6-3.5h-2.2v7.9h-2.3V50.4z
			 M35.1,58.7h2.4c2.5,0,4.1-1.4,4.1-3.5c0-2.3-1.7-3.4-4.2-3.4c-1.1,0-1.9,0.1-2.3,0.2V58.7z"/>
		<path class="st4" d="M56.7,59.8h-7.1v6.6h7.9v2H47.2V50.1h9.8v2h-7.5v5.7h7.1V59.8z"/>
		<path class="st4" d="M60.5,50.4c1.4-0.2,3.1-0.4,5-0.4c3.4,0,5.8,0.8,7.4,2.3c1.6,1.5,2.6,3.6,2.6,6.5c0,3-0.9,5.4-2.6,7.1
			c-1.7,1.7-4.5,2.6-8,2.6c-1.7,0-3.1-0.1-4.3-0.2V50.4z M62.9,66.5c0.6,0.1,1.5,0.1,2.4,0.1c5,0,7.7-2.8,7.7-7.7c0-4.3-2.4-7-7.4-7
			c-1.2,0-2.1,0.1-2.8,0.2V66.5z"/>
		<path class="st4" d="M78.2,65.5c1.1,0.6,2.6,1.2,4.2,1.2c2.4,0,3.8-1.3,3.8-3.1c0-1.7-1-2.7-3.4-3.6c-3-1.1-4.8-2.6-4.8-5.2
			c0-2.8,2.3-4.9,5.9-4.9c1.9,0,3.2,0.4,4,0.9l-0.6,1.9c-0.6-0.3-1.8-0.9-3.5-0.9c-2.5,0-3.4,1.5-3.4,2.7c0,1.7,1.1,2.5,3.6,3.5
			c3.1,1.2,4.6,2.7,4.6,5.3c0,2.8-2.1,5.2-6.4,5.2c-1.8,0-3.7-0.5-4.6-1.2L78.2,65.5z"/>
	</g>
</g>
</svg>
