<?xml version="1.0" encoding="utf-8"?>
<!-- Generator: Adobe Illustrator 22.1.0, SVG Export Plug-In . SVG Version: 6.00 Build 0)  -->
<svg version="1.1" id="Layer_1" xmlns="http://www.w3.org/2000/svg" xmlns:xlink="http://www.w3.org/1999/xlink" x="0px" y="0px"
	 viewBox="0 0 119 119" style="enable-background:new 0 0 119 119;" xml:space="preserve">
<style type="text/css">
	.st0{fill:#A50E37;}
	.st1{fill:#EDC98E;}
	.st2{fill:#FFFFFF;}
	.st3{fill:#4C0118;}
</style>
<g>
	<circle class="st0" cx="59.1" cy="59.3" r="56.1"/>
	<circle class="st1" cx="59.1" cy="59.3" r="17.1"/>
	<path class="st2" d="M30.7,59.1c1.2-14.6,13-26,26.8-26.5c12.4-0.4,24.1,8.2,27.8,20.8C83.8,38,69.8,26.6,54.8,28.3
		C40,30.1,29.1,43.9,30.7,59.1z"/>
	<circle class="st3" cx="59.1" cy="59.3" r="56.1"/>
	<g>
		<path class="st1" d="M38.3,62c0,6.3-3.8,9.6-8.4,9.6c-4.8,0-8.2-3.7-8.2-9.2c0-5.8,3.6-9.6,8.4-9.6C35.1,52.8,38.3,56.6,38.3,62z
			 M24.1,62.3c0,3.9,2.1,7.4,5.8,7.4c3.7,0,5.8-3.4,5.8-7.6c0-3.6-1.9-7.4-5.8-7.4C26.1,54.8,24.1,58.3,24.1,62.3z"/>
		<path class="st1" d="M44.1,55.1h-5.5v-2H52v2h-5.6v16.2h-2.4V55.1z"/>
		<path class="st1" d="M56.4,53.1v7.6h8.8v-7.6h2.4v18.2h-2.4v-8.5h-8.8v8.5h-2.3V53.1H56.4z"/>
		<path class="st1" d="M81.1,62.8H74v6.6h7.9v2H71.7V53.1h9.8v2H74v5.7h7.1V62.8z"/>
		<path class="st1" d="M85,53.4c1.2-0.2,2.9-0.4,4.5-0.4c2.5,0,4.1,0.5,5.3,1.5c0.9,0.8,1.4,2.1,1.4,3.5c0,2.4-1.5,4-3.4,4.6v0.1
			c1.4,0.5,2.2,1.8,2.7,3.7c0.6,2.5,1,4.3,1.4,5h-2.4c-0.3-0.5-0.7-2.1-1.2-4.3c-0.5-2.5-1.5-3.5-3.6-3.5h-2.2v7.9H85V53.4z
			 M87.3,61.7h2.4c2.5,0,4.1-1.4,4.1-3.5c0-2.3-1.7-3.4-4.2-3.4c-1.1,0-1.9,0.1-2.3,0.2V61.7z"/>
	</g>
</g>
</svg>
