<?xml version="1.0" encoding="utf-8"?>
<!-- Generator: Adobe Illustrator 22.1.0, SVG Export Plug-In . SVG Version: 6.00 Build 0)  -->
<svg version="1.1" id="Layer_1" xmlns="http://www.w3.org/2000/svg" xmlns:xlink="http://www.w3.org/1999/xlink" x="0px" y="0px"
	 viewBox="0 0 150 518" style="enable-background:new 0 0 150 518;" xml:space="preserve">
<style type="text/css">
	.st0{fill:#A50E37;}
</style>
<g>
	<path class="st0" d="M96.7,131.6c0-22.8,0-125.7,0-125.7H79.8H69.7H52.8c0,0,0,102.8,0,125.7S10,182,10,214.4s0,267.1,0,275.4
		c0,8.2,5.5,22.1,18,22.1c8.5,0,29.2,0,41.8,0c6,0,10.1,0,10.1,0c12.5,0,33.3,0,41.7,0c12.5,0,18-13.8,18-22.1c0-8.2,0-243,0-275.4
		C139.5,182,96.7,154.3,96.7,131.6z M62.2,168.5c-2.8,3.8-5.8,8.5-9.2,14c-3.4,5.5-6.7,11.9-9.9,18.9c-1.3,3.5-2.6,7.2-3.5,11.1
		c0,4-1.3,6.9-0.7,11.9c0.3,9.2,0.7,19,1.1,28.9c0.7,20.1,0.9,41.6,1,63c0,43-1.3,85.8-3.4,118c-0.9,16-2.3,29.5-3,38.9
		c-0.9,9.4-1.6,14.8-1.6,14.8s-0.7-5.4-1.6-14.8c-0.7-9.4-2.1-22.8-3-38.9c-2-32.2-3.3-75.2-3.4-118c0.1-21.4,0.3-43,1-63
		c0.4-10.1,0.7-19.7,1.1-28.9c-0.1-4.3,1.4-10.1,2.4-14.8c1.8-4.4,3.8-8.4,5.7-12.2c2.3-3.5,4.4-6.8,6.5-10.1c2.4-3,4.7-5.7,6.7-8.2
		c4.4-5,8.2-9.2,11.6-12.6c6.7-6.7,11.1-9.9,11.1-9.9S67.6,160.8,62.2,168.5z"/>
</g>
</svg>
